<svg xmlns="http://www.w3.org/2000/svg" version="1.1" xmlns:xlink="http://www.w3.org/1999/xlink" xmlns:svgjs="http://svgjs.dev/svgjs" width="1000" height="1000" viewBox="0 0 1000 1000"><rect width="1000" height="1000" fill="#000000"></rect><g transform="matrix(0.7,0,0,0.7,149.57575757575756,282.1265587044535)"><svg viewBox="0 0 396 247" data-background-color="#000000" preserveAspectRatio="xMidYMid meet" height="623" width="1000" xmlns="http://www.w3.org/2000/svg" xmlns:xlink="http://www.w3.org/1999/xlink"><g id="tight-bounds" transform="matrix(1,0,0,1,0.2400000000000091,-0.09999999999999432)"><svg viewBox="0 0 395.52 247.2" height="247.2" width="395.52"><g><svg></svg></g><g><svg viewBox="0 0 395.52 247.2" height="247.2" width="395.52"><g transform="matrix(1,0,0,1,75.54432,70.98919453070684)"><svg viewBox="0 0 244.43135999999998 105.22161093858632" height="105.22161093858632" width="244.43135999999998"><g><svg viewBox="0 0 244.43135999999998 105.22161093858632" height="105.22161093858632" width="244.43135999999998"><g><svg viewBox="0 0 244.43135999999998 105.22161093858632" height="105.22161093858632" width="244.43135999999998"><g><svg viewBox="0 0 244.43135999999998 105.22161093858632" height="105.22161093858632" width="244.43135999999998"><g id="textblocktransform"><svg viewBox="0 0 244.43135999999998 105.22161093858632" height="105.22161093858632" width="244.43135999999998" id="textblock"><g><svg viewBox="0 0 244.43135999999998 105.22161093858632" height="105.22161093858632" width="244.43135999999998"><g transform="matrix(1,0,0,1,0,0)"><svg width="244.43135999999998" viewBox="-6.400000095367432 -35.20000076293945 86.29000091552734 37.150001525878906" height="105.22161093858632" data-palette-color="#8ba0ba"><path d="M26.35-33.1L26.35-33.1 21.9-33.15 21.4-33.15Q16.1-33.15 10.98-31.65 5.85-30.15 2.38-27.98-1.1-25.8-3.23-23.5-5.35-21.2-5.35-19.55L-5.35-19.55Q-5.35-17.3-1.93-17.3 1.5-17.3 6.38-19.63 11.25-21.95 14.55-25.5L14.55-25.5Q15.1-26.05 15.3-26.05L15.3-26.05Q15.4-26.05 15.4-25.9 15.4-25.75 15.35-25.65L15.35-25.65Q13.95-22.35 8.58-18.88 3.2-15.4-1.95-15.4L-1.95-15.4Q-4.15-15.4-5.28-16.3-6.4-17.2-6.4-19.07-6.4-20.95-4.33-23.68-2.25-26.4 1.35-28.95 4.95-31.5 10.73-33.25 16.5-35 22.95-35L22.95-35Q44.15-35 44.85-35.1 45.55-35.2 46.03-35.2 46.5-35.2 46.5-35 46.5-34.8 45.98-34.38 45.45-33.95 44.18-33.52 42.9-33.1 41.3-33.1L41.3-33.1Q33.8-33.1 26.35-33.1ZM24.3-31.1L24.55-30.9Q24.55-30.8 24.45-30.6L24.45-30.6 14.5-11.3Q18.6-11.4 20.4-11.4L20.4-11.4 22.3-11.4Q25.55-11.35 25.55-11.03 25.55-10.7 24.83-10.18 24.1-9.65 23.45-9.65L23.45-9.65Q22.05-9.75 16.8-9.75L16.8-9.75 13.7-9.75 8.8-0.2Q8.5 0.45 7.7 0.8 6.9 1.15 6.48 1.15 6.05 1.15 6.05 0.9 6.05 0.65 11.5-9.7L11.5-9.7Q5.3-9.5 2-9.1L2-9.1Q1.6-9.1 1.6-9.3L1.6-9.3Q1.6-9.55 2.55-10.4L2.55-10.4Q3.35-10.9 12.3-11.2L12.3-11.2Q22.15-29.85 22.05-29.95L22.05-29.95Q22.35-30.45 23.05-30.7L23.05-30.7 24.3-31.1ZM25.6-4.85L25.6-4.85Q22.6-4.85 22.6-6.15L22.6-6.15Q22.6-7.7 26.15-9.83 29.7-11.95 32.55-11.95L32.55-11.95Q34-11.95 34-11.05L34-11.05Q34-10.55 33.25-9.95 32.5-9.35 31.8-9 31.1-8.65 31-8.65L31-8.65Q30.7-8.65 30.6-8.9L30.6-8.9Q30.5-9.25 31.12-9.63 31.75-10 31.75-10.45 31.75-10.9 30.62-10.9 29.5-10.9 27.1-9.33 24.7-7.75 24.7-6.75L24.7-6.75Q24.7-6 26.45-6L26.45-6Q26.75-6 27.55-6.05 28.35-6.1 28.35-5.85 28.35-5.6 25.87-4.05 23.4-2.5 23.4-1.4L23.4-1.4Q23.4-0.15 25.02-0.15 26.65-0.15 28.7-1L28.7-1Q32-2.45 34.7-4.1L34.7-4.1 35.65-4.7Q35.7-4.6 35.7-4.3 35.7-4 35.25-3.8L35.25-3.8Q32.6-2 29.45-0.38 26.3 1.25 23.77 1.25 21.25 1.25 21.25-0.43 21.25-2.1 25.6-4.85ZM37.24-5.45L37.24-5.45Q34.84-3.25 34.2-3.25L34.2-3.25Q33.99-3.25 33.99-3.45 33.99-3.65 34.15-3.8L34.15-3.8Q35.34-4.45 36.95-5.9L36.95-5.9Q36.7-6.5 36.7-7.2L36.7-7.2Q36.7-8.9 38.45-10.45 40.2-12 41.4-12L41.4-12Q42.05-12 42.05-11.38 42.05-10.75 40.05-8.35L40.05-8.35Q39.84-8.1 39.59-7.85 39.34-7.6 39.07-7.28 38.8-6.95 38.65-6.8L38.65-6.8Q38.9-6.55 39.55-5.93 40.2-5.3 40.59-4.9L40.59-4.9Q41.7-3.8 41.7-2.15 41.7-0.5 39.65 0.73 37.59 1.95 35.37 1.95 33.15 1.95 33.15 0.63 33.15-0.7 35.2-1.8 37.24-2.9 39.5-3.3L39.5-3.3Q39.2-3.7 38.37-4.35 37.55-5 37.24-5.45ZM39.84-2.7Q38.15-2.5 36.65-1.78 35.15-1.05 35.15-0.08 35.15 0.9 36.52 0.9 37.9 0.9 38.97 0.25 40.05-0.4 40.05-1.2 40.05-2 39.84-2.7L39.84-2.7ZM38.3-7.2L38.3-7.2 39.59-8.6Q40.9-10.15 40.9-10.48 40.9-10.8 40.59-10.8L40.59-10.8Q39.75-10.8 38.84-9.98 37.95-9.15 37.95-8.38 37.95-7.6 38.3-7.2ZM45.14-16.5L45.14-16.5Q48.54-16.5 51.84-16.55L51.84-16.55Q57.19-23.4 59.14-23.4L59.14-23.4Q59.84-23.4 59.84-22.65L59.84-22.65Q59.84-20.25 56.34-16.65L56.34-16.65 60.14-16.7Q63.94-16.85 64.79-16.85 65.64-16.85 65.64-16.65L65.64-16.65Q65.64-15.7 64.34-15.65L64.34-15.65 54.94-15.25Q52.49-12.95 48.89-10.4L48.89-10.4Q45.09-4.15 45.09-1.9L45.09-1.9Q45.09-0.75 46.57-0.75 48.04-0.75 51.24-2.35L51.24-2.35 55.29-4.7Q55.34-4.6 55.34-4.3 55.34-4 54.89-3.8L54.89-3.8Q53.29-2.7 51.39-1.6L51.39-1.6Q47.34 0.45 45.19 0.45L45.19 0.45Q44.19 0.45 43.64 0.05 43.09-0.35 43.04-0.75L43.04-0.75 42.94-1.15Q42.94-2.85 45.24-6.88 47.54-10.9 50.69-15.1L50.69-15.1Q48.29-15 46.14-15 43.99-15 43.99-15.5L43.99-15.5Q43.99-16.45 45.14-16.5ZM58.29-21.6L58.29-21.6Q58.29-21.85 58.09-21.85L58.09-21.85Q56.94-21.85 52.99-16.6L52.99-16.6 55.49-16.6Q58.29-19.65 58.29-21.6ZM54.09-15.2L54.09-15.2Q52.49-15.2 51.94-15.15L51.94-15.15Q51.49-14.5 50.69-13.25 49.89-12 49.59-11.55L49.59-11.55Q52.19-13.45 54.09-15.2ZM62.94-15.25L62.94-15.25Q63.69-15.25 63.69-14.5 63.69-13.75 62.99-12.98 62.29-12.2 61.44-12.2L61.44-12.2Q60.74-12.2 60.74-13.18 60.74-14.15 61.54-14.7 62.34-15.25 62.94-15.25ZM58.24-8.65L58.24-8.65Q58.49-9.05 58.94-9.05 59.39-9.05 59.84-8.6L59.84-8.6Q59.84-8.4 59.19-7.7 58.54-7 56.99-4.58 55.44-2.15 55.44-1.35L55.44-1.35Q55.44-0.85 56.19-0.75L56.19-0.75Q57.19-0.75 59.29-1.73 61.39-2.7 62.99-3.7L62.99-3.7 64.59-4.7Q64.64-4.6 64.64-4.3 64.64-4 64.19-3.8L64.19-3.8Q57.44 0.8 54.79 0.8L54.79 0.8Q53.49 0.8 53.49-0.5 53.49-1.8 54.92-4.13 56.34-6.45 58.24-8.65ZM63.94-8.1L63.94-8.1 62.69-7.75Q62.59-7.75 62.59-7.9L62.59-7.9Q62.59-8.35 63.71-9 64.84-9.65 65.54-9.65 66.24-9.65 66.24-6.65L66.24-6.65 65.94-1.8Q65.99-1.85 69.29-5.48 72.59-9.1 75.01-11.05 77.44-13 79.14-13L79.14-13Q79.89-12.95 79.89-12.48 79.89-12 78.99-11.25 78.09-10.5 77.61-10.5 77.14-10.5 77.04-10.7 76.94-10.9 76.56-10.9 76.19-10.9 75.36-10.38 74.54-9.85 73.31-8.65 72.09-7.45 70.99-6.28 69.89-5.1 67.96-3.03 66.04-0.95 64.59 0.55L64.59 0.55Q64.19 0.9 63.91 0.9 63.64 0.9 63.64 0.7L63.64 0.7Q64.39-3.15 64.39-6.9L64.39-6.9 64.39-7.85Q64.24-8.1 63.94-8.1Z" opacity="1" transform="matrix(1,0,0,1,0,0)" fill="#ffffff" class="undefined-text-0" data-fill-palette-color="primary" id="text-0"></path></svg></g></svg></g></svg></g></svg></g></svg></g></svg></g></svg></g><g><path d="M245.816 0c68.262 0 123.6 55.338 123.6 123.6 0 68.262-55.338 123.6-123.6 123.6-44.403 0-83.337-23.414-105.13-58.569l5.627 0c21.227 32.413 57.865 53.825 99.503 53.825 65.642 0 118.856-53.213 118.855-118.856 0-65.642-53.213-118.856-118.855-118.856-41.638 0-78.276 21.411-99.503 53.825l-5.627 0c21.792-35.155 60.727-58.569 105.13-58.569z" fill="#ffffff" stroke="transparent" data-fill-palette-color="tertiary"></path></g></svg></g><defs></defs></svg><rect width="395.52" height="247.2" fill="none" stroke="none" visibility="hidden"></rect></g></svg></g></svg>